<svg width="1216" height="209" viewBox="0 0 1216 209" fill="none" xmlns="http://www.w3.org/2000/svg">
<path d="M0 64.25L4.49867 47.8153C1.72267 43.0047 0.264 37.5513 0.266667 31.9593C0.274667 14.4767 14.5013 0.25 31.9813 0.25C40.464 0.252667 48.4267 3.55667 54.416 9.55133C60.4027 15.546 63.6987 23.514 63.696 31.9887C63.688 49.474 49.4613 63.7007 31.9813 63.7007C26.6747 63.698 21.4453 62.3673 16.8133 59.8393L0 64.25ZM17.592 54.098C22.0613 56.7513 26.328 58.3407 31.9707 58.3433C46.4987 58.3433 58.3333 46.5193 58.3413 31.9833C58.3467 17.418 46.568 5.61 31.992 5.60467C17.4533 5.60467 5.62667 17.4287 5.62133 31.962C5.61867 37.8953 7.35733 42.338 10.2773 46.986L7.61333 56.714L17.592 54.098ZM47.9573 39.5273C47.76 39.1967 47.232 38.9993 46.4373 38.602C45.6453 38.2047 41.7493 36.2873 41.0213 36.0233C40.296 35.7593 39.768 35.626 39.2373 36.4207C38.7093 37.2127 37.1893 38.9993 36.728 39.5273C36.2667 40.0553 35.8027 40.122 35.0107 39.7247C34.2187 39.3273 31.664 38.4927 28.6373 35.7913C26.2827 33.69 24.6907 31.0953 24.2293 30.3007C23.768 29.5087 24.1813 29.0793 24.576 28.6847C24.9333 28.33 25.368 27.7593 25.7653 27.2953C26.168 26.8367 26.2987 26.506 26.5653 25.9753C26.8293 25.4473 26.6987 24.9833 26.4987 24.586C26.2987 24.1913 24.7147 20.29 24.056 18.7033C23.4107 17.1593 22.7573 17.3673 22.272 17.3433L20.752 17.3167C20.224 17.3167 19.3653 17.514 18.64 18.3087C17.9147 19.1033 15.8667 21.018 15.8667 24.9193C15.8667 28.8207 18.7067 32.5887 19.1013 33.1167C19.4987 33.6447 24.688 41.65 32.6373 45.082C34.528 45.898 36.0053 46.386 37.1547 46.7513C39.0533 47.354 40.7813 47.2687 42.1467 47.066C43.6693 46.8393 46.8347 45.1487 47.496 43.298C48.1573 41.4447 48.1573 39.858 47.9573 39.5273Z" fill="#25D366"/>
<g clip-path="url(#clip0_9193_1485)">
<path d="M208 32.25C208 14.577 193.673 0.25 176 0.25C158.327 0.25 144 14.577 144 32.25C144 47.2567 154.332 59.8494 168.27 63.3079V42.0292H161.672V32.25H168.27V28.0362C168.27 17.1447 173.199 12.0964 183.893 12.0964C185.92 12.0964 189.418 12.4945 190.849 12.8913V21.7553C190.094 21.6759 188.782 21.6362 187.153 21.6362C181.906 21.6362 179.879 23.6241 179.879 28.7914V32.25H190.331L188.535 42.0292H179.879V64.0158C195.724 62.1022 208.001 48.611 208.001 32.25H208Z" fill="#0866FF"/>
<path d="M188.534 42.029L190.33 32.2498H179.877V28.7912C179.877 23.6239 181.905 21.636 187.152 21.636C188.781 21.636 190.093 21.6757 190.848 21.7551V12.8911C189.417 12.493 185.919 12.0962 183.891 12.0962C173.198 12.0962 168.269 17.1445 168.269 28.036V32.2498H161.671V42.029H168.269V63.3077C170.745 63.9221 173.334 64.2498 175.999 64.2498C177.311 64.2498 178.605 64.1692 179.876 64.0156V42.029H188.533H188.534Z" fill="white"/>
</g>
<g clip-path="url(#clip1_9193_1485)">
<path d="M320 26.4316V38.8244H337.222C336.466 42.8098 334.196 46.1845 330.793 48.4536L341.178 56.5118C347.229 50.9265 350.72 42.7228 350.72 32.9774C350.72 30.7084 350.516 28.5263 350.138 26.432L320 26.4316Z" fill="#4285F4"/>
<path d="M302.066 38.3403L299.723 40.1333L291.432 46.5914C296.698 57.0349 307.49 64.2496 319.999 64.2496C328.639 64.2496 335.882 61.3987 341.177 56.5115L330.791 48.4533C327.94 50.3733 324.304 51.537 319.999 51.537C311.679 51.537 304.61 45.9225 302.079 38.3588L302.066 38.3403Z" fill="#34A853"/>
<path d="M291.433 17.9082C289.251 22.2135 288 27.0717 288 32.2498C288 37.4279 289.251 42.2862 291.433 46.5915C291.433 46.6204 302.08 38.3296 302.08 38.3296C301.44 36.4096 301.062 34.3734 301.062 32.2495C301.062 30.1256 301.44 28.0893 302.08 26.1694L291.433 17.9082Z" fill="#FBBC05"/>
<path d="M319.999 12.9918C324.712 12.9918 328.901 14.6209 332.247 17.7627L341.41 8.5992C335.854 3.42111 328.64 0.25 319.999 0.25C307.49 0.25 296.698 7.43544 291.432 17.9082L302.08 26.17C304.61 18.6063 311.679 12.9918 319.999 12.9918Z" fill="#EA4335"/>
</g>
<g clip-path="url(#clip2_9193_1485)">
<path d="M490.112 50.1259C489.144 52.3619 487.999 54.4201 486.671 56.3124C484.862 58.8921 483.38 60.6777 482.239 61.6693C480.469 63.2969 478.573 64.1305 476.542 64.1779C475.084 64.1779 473.326 63.7631 471.28 62.9216C469.227 62.0841 467.34 61.6693 465.615 61.6693C463.806 61.6693 461.865 62.0841 459.79 62.9216C457.711 63.7631 456.036 64.2016 454.756 64.245C452.809 64.328 450.868 63.4707 448.931 61.6693C447.694 60.5908 446.147 58.742 444.295 56.1228C442.307 53.3258 440.672 50.0825 439.392 46.3848C438.021 42.3909 437.333 38.5233 437.333 34.779C437.333 30.49 438.26 26.7907 440.117 23.6908C441.576 21.2008 443.516 19.2366 445.946 17.7947C448.375 16.3527 450.999 15.6179 453.826 15.5709C455.373 15.5709 457.401 16.0493 459.921 16.9895C462.435 17.9329 464.048 18.4113 464.756 18.4113C465.285 18.4113 467.078 17.8519 470.117 16.7367C472.991 15.7025 475.416 15.2742 477.403 15.4429C482.788 15.8775 486.833 18.0001 489.523 21.8242C484.708 24.742 482.326 28.8288 482.373 34.0715C482.417 38.1551 483.898 41.5533 486.809 44.2515C488.129 45.5038 489.602 46.4717 491.242 47.1591C490.886 48.1902 490.511 49.1778 490.112 50.1259ZM477.763 1.53085C477.763 4.73158 476.593 7.7201 474.263 10.4862C471.45 13.7746 468.048 15.6748 464.358 15.375C464.311 14.991 464.284 14.5869 464.284 14.1622C464.284 11.0895 465.622 7.80108 467.997 5.11237C469.183 3.75103 470.691 2.6191 472.521 1.71613C474.346 0.826635 476.072 0.334726 477.696 0.250488C477.743 0.678376 477.763 1.10629 477.763 1.53081V1.53085Z" fill="black"/>
</g>
<g clip-path="url(#clip3_9193_1485)">
<path d="M608 64.25C625.673 64.25 640 49.9231 640 32.25C640 14.5769 625.673 0.25 608 0.25C590.327 0.25 576 14.5769 576 32.25C576 49.9231 590.327 64.25 608 64.25Z" fill="white"/>
<path d="M608 0.25C590.328 0.25 576 14.5776 576 32.25C576 45.8138 584.428 57.4023 596.333 62.064C596.043 59.5356 595.806 55.6377 596.438 52.8722C597.017 50.3702 600.178 36.9644 600.178 36.9644C600.178 36.9644 599.23 35.0418 599.23 32.2237C599.23 27.7726 601.811 24.4541 605.024 24.4541C607.763 24.4541 609.08 26.5084 609.08 28.9578C609.08 31.6969 607.342 35.8056 606.42 39.6245C605.656 42.8113 608.026 45.4187 611.161 45.4187C616.85 45.4187 621.222 39.4138 621.222 30.7751C621.222 23.1109 615.717 17.7644 607.842 17.7644C598.729 17.7644 593.383 24.5858 593.383 31.6442C593.383 34.3833 594.436 37.3331 595.753 38.9397C596.017 39.2558 596.043 39.5455 595.964 39.8615C595.727 40.8623 595.174 43.0484 595.068 43.4961C594.937 44.0755 594.594 44.2072 593.989 43.9175C589.985 42.0475 587.483 36.227 587.483 31.5126C587.483 21.4253 594.805 12.1545 608.632 12.1545C619.72 12.1545 628.359 20.0558 628.359 30.6434C628.359 41.6788 621.406 50.5545 611.766 50.5545C608.527 50.5545 605.472 48.8689 604.445 46.8673C604.445 46.8673 602.838 52.9776 602.443 54.4788C601.732 57.2706 599.783 60.7471 598.466 62.8805C601.468 63.8023 604.629 64.3027 607.947 64.3027C625.62 64.3027 639.947 49.9751 639.947 32.3027C640 14.5776 625.673 0.25 608 0.25Z" fill="#E60019"/>
</g>
<g clip-path="url(#clip4_9193_1485)">
<path fill-rule="evenodd" clip-rule="evenodd" d="M752.027 0.25C734.317 0.25 720 14.6722 720 32.5144C720 46.7767 729.173 58.8494 741.899 63.1223C743.49 63.4435 744.073 62.4281 744.073 61.5739C744.073 60.8259 744.02 58.262 744.02 55.5906C735.111 57.514 733.256 51.7445 733.256 51.7445C731.824 48.0052 729.703 47.0442 729.703 47.0442C726.787 45.0677 729.915 45.0677 729.915 45.0677C733.15 45.2814 734.847 48.3795 734.847 48.3795C737.71 53.2936 742.323 51.9051 744.179 51.0503C744.444 48.9669 745.293 47.5247 746.194 46.7236C739.089 45.9756 731.613 43.198 731.613 30.8048C731.613 27.2792 732.884 24.3947 734.9 22.1514C734.582 21.3503 733.468 18.0378 735.218 13.6043C735.218 13.6043 737.922 12.7495 744.02 16.9162C746.63 16.2099 749.322 15.8506 752.027 15.8476C754.731 15.8476 757.487 16.2219 760.033 16.9162C766.131 12.7495 768.835 13.6043 768.835 13.6043C770.585 18.0378 769.471 21.3503 769.153 22.1514C771.221 24.3947 772.441 27.2792 772.441 30.8048C772.441 43.198 764.965 45.9219 757.806 46.7236C758.973 47.7384 759.98 49.6611 759.98 52.7062C759.98 57.0329 759.927 60.5053 759.927 61.5732C759.927 62.4281 760.511 63.4435 762.101 63.123C774.827 58.8487 784 46.7767 784 32.5144C784.052 14.6722 769.683 0.25 752.027 0.25Z" fill="#24292F"/>
</g>
<g clip-path="url(#clip5_9193_1485)">
<path d="M885.334 64.25C891.222 64.25 896 59.4713 896 53.5833V42.9165H885.334C879.446 42.9165 874.667 47.6953 874.667 53.5833C874.667 59.4713 879.446 64.25 885.334 64.25Z" fill="#0ACF83"/>
<path d="M874.667 32.2502C874.667 26.3622 879.446 21.5835 885.334 21.5835H896V42.9167H885.334C879.446 42.917 874.667 38.1382 874.667 32.2502Z" fill="#A259FF"/>
<path d="M874.667 10.9168C874.667 5.02875 879.446 0.25 885.334 0.25H896V21.5832H885.334C879.446 21.5832 874.667 16.8048 874.667 10.9168Z" fill="#F24E1E"/>
<path d="M896 0.25H906.667C912.555 0.25 917.334 5.02875 917.334 10.9168C917.334 16.8048 912.555 21.5832 906.667 21.5832H896V0.25Z" fill="#FF7262"/>
<path d="M917.334 32.2503C917.334 38.1383 912.555 42.917 906.667 42.917C900.779 42.917 896 38.1383 896 32.2503C896 26.3622 900.779 21.5835 906.667 21.5835C912.555 21.5835 917.334 26.3622 917.334 32.2503Z" fill="#1ABCFE"/>
</g>
<path d="M1062.18 11.3314C1058.1 9.45968 1053.73 8.08071 1049.15 7.29091C1049.07 7.27567 1048.99 7.31376 1048.94 7.38995C1048.38 8.39052 1047.76 9.69585 1047.32 10.7218C1042.4 9.98538 1037.51 9.98538 1032.69 10.7218C1032.25 9.67305 1031.61 8.39052 1031.04 7.38995C1031 7.3163 1030.92 7.27821 1030.83 7.29091C1026.26 8.07818 1021.89 9.45716 1017.81 11.3314C1017.77 11.3466 1017.74 11.372 1017.72 11.405C1009.42 23.8006 1007.15 35.8916 1008.26 47.8326C1008.27 47.8911 1008.3 47.9469 1008.35 47.9825C1013.82 52.0026 1019.12 54.4431 1024.33 56.0608C1024.41 56.0862 1024.5 56.0557 1024.55 55.9871C1025.78 54.306 1026.88 52.5334 1027.82 50.6693C1027.88 50.5601 1027.83 50.4306 1027.71 50.3874C1025.97 49.7271 1024.31 48.9221 1022.72 48.0079C1022.59 47.9342 1022.58 47.7539 1022.7 47.6675C1023.03 47.4161 1023.37 47.1545 1023.69 46.8904C1023.75 46.8422 1023.83 46.832 1023.9 46.8625C1034.37 51.6445 1045.71 51.6445 1056.06 46.8625C1056.13 46.8295 1056.21 46.8397 1056.27 46.8879C1056.59 47.152 1056.93 47.4161 1057.26 47.6675C1057.38 47.7539 1057.37 47.9342 1057.25 48.0079C1055.65 48.9398 1054 49.7271 1052.25 50.3849C1052.14 50.4281 1052.09 50.5601 1052.14 50.6693C1053.1 52.5308 1054.2 54.3034 1055.41 55.9846C1055.46 56.0557 1055.55 56.0862 1055.63 56.0608C1060.86 54.4431 1066.17 52.0026 1071.64 47.9825C1071.69 47.9469 1071.72 47.8936 1071.72 47.8352C1073.06 34.03 1069.49 22.0382 1062.26 11.4075C1062.24 11.372 1062.21 11.3466 1062.18 11.3314ZM1029.39 40.5618C1026.23 40.5618 1023.64 37.6667 1023.64 34.1113C1023.64 30.5559 1026.18 27.6608 1029.39 27.6608C1032.62 27.6608 1035.19 30.5813 1035.14 34.1113C1035.14 37.6667 1032.59 40.5618 1029.39 40.5618ZM1050.65 40.5618C1047.5 40.5618 1044.9 37.6667 1044.9 34.1113C1044.9 30.5559 1047.45 27.6608 1050.65 27.6608C1053.88 27.6608 1056.45 30.5813 1056.4 34.1113C1056.4 37.6667 1053.88 40.5618 1050.65 40.5618Z" fill="#5865F2"/>
<path d="M1167.75 27.6922C1168.59 30.4993 1169.62 33.1322 1170.73 35.6719C1172.65 40.2208 1173.94 42.6269 1175.73 45.6122C1177.91 49.1768 1180.32 53.2355 1184.29 55.8644C1187.18 57.7803 1190.71 58.7606 1194.09 58.7606C1198.86 58.7606 1202.96 56.6664 1205.6 54.2117C1208.18 51.8056 1211.53 47.1676 1211.53 38.1185C1211.53 34.9995 1212.91 32.3221 1213.93 30.1833C1213.93 30.1388 1213.98 30.0497 1214.07 29.8714C1214.47 28.9803 1214.96 27.8218 1214.96 26.6633C1214.96 25.8168 1214.73 24.8365 1214.16 23.9899C1213.26 22.475 1211.66 21.9403 1210.19 21.9403C1206.76 21.9403 1204.39 24.3464 1203.19 26.8011L1202.79 27.6031C1202.3 26.8902 1201.81 26.1327 1201.4 25.4644C1200.16 23.2811 1199.44 21.8107 1198.82 19.9352C1198.33 18.4649 1197.93 16.7717 1197.66 15.3864C1196.9 11.0157 1195.66 9.58992 1193.6 9.05524C1192.09 8.65423 1190.31 8.96612 1189.01 9.81271C1188.12 7.80764 1186.61 6.9165 1184.6 6.9165C1181.75 6.9165 1179.16 8.7879 1179.16 11.9555C1179.16 12.3565 1179.2 12.7575 1179.25 13.2476C1178.89 13.1585 1178.49 13.114 1178.09 13.114C1175.01 13.114 1172.74 15.2527 1172.74 18.153C1172.74 18.8213 1172.83 19.5788 1173.05 20.4699C1172.78 20.4254 1172.52 20.4254 1172.25 20.4254C1170.73 20.5145 1169.35 21.0937 1168.37 22.2968C1167.39 23.4552 1166.99 25.2375 1167.75 27.6922Z" fill="#1F1F1F"/>
<path d="M1170.29 26.8898C1169.89 25.5977 1169.93 24.6174 1170.42 23.9936C1170.91 23.4144 1171.58 23.147 1172.38 23.1025C1173.76 23.0579 1174.3 24.0382 1175.1 26.5779C1175.59 28.182 1176.57 30.503 1177.15 31.7951C1177.91 33.3546 1178.98 35.4488 1179.47 36.1658C1179.87 36.7896 1180.22 36.9678 1180.62 36.9678C1181.34 36.9678 1181.87 36.5668 1181.87 35.8539C1181.87 35.4529 1181.47 34.7845 1181.25 34.3835C1180.85 33.626 1180 32.1111 1179.42 30.8189C1178.8 29.3931 1178.08 27.6108 1177.51 26.0027C1177.15 25.067 1176.75 23.7303 1176.35 22.3936C1175.72 20.344 1175.41 19.0964 1175.41 18.1567C1175.41 16.7308 1176.48 15.7951 1178.08 15.7951C1179.24 15.7951 1180 16.3744 1180.49 18.4685C1180.89 20.3845 1181.6 23.5075 1182.63 25.9582C1183.3 27.5622 1184.28 29.705 1184.86 30.7744C1185.21 31.3982 1185.62 31.9329 1185.62 32.1556C1185.62 32.4675 1185.04 32.9577 1184.55 33.626C1184.23 34.027 1184.1 34.2944 1184.1 34.6063C1184.1 34.8736 1184.28 35.141 1184.55 35.4974C1184.81 35.8539 1185.08 36.2103 1185.39 36.2103C1185.62 36.2103 1185.75 36.1212 1185.88 35.943C1187.26 34.2053 1188.78 33.0022 1190.52 32.0179C1192.57 30.8594 1194.67 30.2802 1196.32 29.9237C1197.12 29.7455 1197.34 29.5673 1197.34 29.1217C1197.34 28.587 1196.94 28.2751 1196.41 28.2306C1196 28.186 1195.65 28.2306 1195.02 28.2751C1194.58 28.3197 1194.36 28.0969 1194.09 27.5177C1193.29 25.8245 1191.73 22.9688 1190.79 19.3151C1190.39 17.7556 1190.03 16.107 1189.81 13.9642C1189.68 12.984 1189.86 12.6275 1190.35 12.182C1190.97 11.6473 1192.08 11.4245 1192.93 11.6473C1193.96 11.9146 1194.49 12.7167 1195.02 15.8397C1195.29 17.3101 1195.74 19.1815 1196.27 20.7896C1196.94 22.8392 1197.79 24.5364 1199.08 26.8088C1199.79 28.0564 1200.68 29.3486 1201.62 30.6002C1201.44 31.1349 1201.13 31.4913 1200.1 32.3379C1199.08 33.1845 1198.05 34.0756 1197.12 35.7242C1196.45 36.9273 1196.14 38.264 1196.14 39.1551C1196.14 40.0017 1196.32 40.1799 1196.85 40.1799C1197.79 40.1799 1198.54 40.0017 1198.59 39.6007C1198.81 37.9967 1199.08 36.9718 1199.97 35.7648C1200.51 35.0964 1201.44 34.2498 1202.2 33.5815C1203.62 32.423 1204.11 31.7546 1204.6 30.106C1204.83 29.3485 1205.09 28.6356 1205.45 27.9673C1206.3 26.4078 1207.81 24.6255 1210.18 24.6255C1210.94 24.6255 1211.56 24.8483 1211.96 25.4721C1212.18 25.8285 1212.27 26.3187 1212.27 26.6751C1212.27 27.4772 1211.69 28.5911 1211.43 29.1258C1210.45 31.2199 1208.84 34.4321 1208.84 38.1303C1208.84 46.1992 1205.99 50.2134 1203.76 52.263C1201.57 54.3126 1198.14 56.0989 1194.08 56.0989C1191.19 56.0989 1188.2 55.2523 1185.75 53.6483C1182.32 51.3759 1180.18 47.8073 1177.99 44.2427C1176.25 41.3465 1175.05 39.0701 1173.18 34.6589C1172.12 32.103 1171.13 29.6078 1170.29 26.8898Z" fill="#FFE450"/>
<path d="M1181.75 11.9558C1181.75 10.2626 1183.31 9.59424 1184.6 9.59424C1185.98 9.59424 1186.47 10.2626 1186.83 11.6884C1187.14 12.8469 1187.27 13.9163 1187.41 15.1639C1187.58 16.4115 1188.21 19.2671 1188.39 19.9801C1189.05 22.4307 1190.39 25.3309 1192 28.8064C1191.06 29.1183 1189.81 29.653 1188.97 30.0985C1187.9 30.6778 1187.67 30.6778 1187.23 29.8312C1186.29 28.0935 1185.62 26.8013 1185.04 25.2823C1184.55 24.0347 1184.06 22.6089 1183.66 20.9563C1182.99 18.1492 1182.91 17.3471 1182.37 16.0509C1182.06 14.7183 1181.75 13.0697 1181.75 11.9558Z" fill="#FFE450"/>
<path d="M1165.79 41.8003C1164.84 42.3836 1159.84 45.0043 1158.71 45.4215C1157.91 45.7213 1157.03 45.6484 1156.52 44.1253C1155.88 42.2418 1156.77 41.7962 1158.04 41.3061C1159.15 40.8727 1163.79 39.1957 1164.87 38.9041C1165.63 38.7015 1166.15 38.9567 1166.52 39.8681C1166.92 40.8686 1166.64 41.2696 1165.79 41.8003Z" fill="#1F1F1F"/>
<path d="M1161.66 31.1834C1160.32 31.2199 1154.73 30.9809 1153.46 30.8553C1152.35 30.746 1151.9 30.2558 1152.02 28.6477C1152.15 26.9222 1152.82 26.8168 1153.91 26.9222C1155.17 27.0437 1161.03 27.9956 1161.96 28.2832C1162.92 28.5829 1163.06 29.0204 1162.94 29.8629C1162.79 30.9566 1162.3 31.1632 1161.66 31.1834Z" fill="#1F1F1F"/>
<path d="M1162.36 19.8749C1160.82 19.3888 1156.25 16.6222 1155.06 15.9093C1153.98 15.2612 1153.84 14.6779 1154.59 13.2561C1155.26 12.0004 1155.99 11.7817 1157.09 12.3488C1158.36 13.009 1162.83 16.4926 1163.69 17.1812C1164.51 17.8455 1164.4 18.1898 1163.97 19.0445C1163.53 19.8992 1163.13 20.1179 1162.36 19.8749Z" fill="#1F1F1F"/>
<path d="M31.9991 144.25C13.9756 144.25 0 157.458 0 175.289C0 184.617 3.82389 192.681 10.0477 198.249C10.5677 198.713 10.8877 199.368 10.9037 200.072L11.0797 205.768C11.0925 206.187 11.2081 206.597 11.4162 206.961C11.6244 207.325 11.9187 207.632 12.2734 207.856C12.6282 208.079 13.0323 208.212 13.4505 208.243C13.8687 208.274 14.288 208.201 14.6716 208.032L21.0234 205.232C21.5594 204.992 22.1674 204.952 22.7354 205.104C25.6553 205.904 28.7592 206.336 31.9991 206.336C50.0226 206.336 63.9982 193.129 63.9982 175.297C63.9982 157.466 50.0226 144.25 31.9991 144.25Z" fill="url(#paint0_radial_9193_1485)"/>
<path d="M12.784 184.369L22.1838 169.457C22.5374 168.896 23.0035 168.414 23.5528 168.042C24.1021 167.67 24.7226 167.415 25.3751 167.295C26.0276 167.175 26.6979 167.191 27.3438 167.343C27.9897 167.495 28.597 167.779 29.1276 168.178L36.6074 173.785C36.9413 174.035 37.3475 174.17 37.7647 174.168C38.1818 174.167 38.5871 174.03 38.9193 173.777L49.015 166.114C50.359 165.09 52.1189 166.706 51.223 168.138L41.8152 183.041C41.4616 183.603 40.9955 184.085 40.4462 184.457C39.8969 184.829 39.2764 185.083 38.6239 185.203C37.9714 185.324 37.3011 185.307 36.6552 185.156C36.0093 185.004 35.4019 184.72 34.8714 184.321L27.3916 178.713C27.0577 178.463 26.6514 178.329 26.2343 178.33C25.8172 178.332 25.4119 178.469 25.0797 178.721L14.984 186.385C13.64 187.409 11.88 185.801 12.784 184.369Z" fill="white"/>
<path d="M192.869 149.327H201.865L182.212 171.789L205.332 202.354H187.229L173.05 183.816L156.826 202.354H147.825L168.846 178.329L146.667 149.327H165.229L178.046 166.271L192.869 149.327ZM189.712 196.97H194.696L162.521 154.428H157.172L189.712 196.97Z" fill="black"/>
<g clip-path="url(#clip6_9193_1485)">
<path d="M350.724 160.744C350.363 159.382 349.65 158.14 348.657 157.14C347.664 156.141 346.426 155.42 345.066 155.05C340.063 153.704 320.063 153.704 320.063 153.704C320.063 153.704 300.064 153.704 295.061 155.05C293.701 155.42 292.463 156.141 291.47 157.14C290.477 158.14 289.764 159.382 289.402 160.744C288.064 165.769 288.064 176.249 288.064 176.249C288.064 176.249 288.064 186.729 289.402 191.754C289.764 193.115 290.477 194.358 291.47 195.357C292.463 196.357 293.701 197.078 295.061 197.448C300.064 198.794 320.063 198.794 320.063 198.794C320.063 198.794 340.063 198.794 345.066 197.448C346.426 197.078 347.664 196.357 348.657 195.357C349.65 194.358 350.363 193.115 350.724 191.754C352.063 186.729 352.063 176.249 352.063 176.249C352.063 176.249 352.063 165.769 350.724 160.744Z" fill="#FF0302"/>
<path d="M313.518 185.765V166.733L330.245 176.249L313.518 185.765Z" fill="#FEFEFE"/>
</g>
<g clip-path="url(#clip7_9193_1485)">
<path d="M495.999 175.789C495.999 184.267 494.578 191.144 492.825 191.144C491.072 191.144 489.651 184.269 489.651 175.789C489.651 167.31 491.072 160.435 492.825 160.435C494.577 160.435 495.999 167.309 495.999 175.789Z" fill="black"/>
<path d="M487.9 175.79C487.9 185.254 483.859 192.93 478.875 192.93C473.89 192.93 469.85 185.254 469.85 175.79C469.85 166.325 473.89 158.649 478.874 158.649C483.858 158.649 487.899 166.323 487.899 175.79" fill="black"/>
<path d="M468.099 175.79C468.099 185.845 460.018 193.996 450.05 193.996C440.082 193.996 432.001 185.843 432.001 175.79C432.001 165.737 440.082 157.583 450.05 157.583C460.019 157.583 468.099 165.735 468.099 175.79Z" fill="black"/>
</g>
<g clip-path="url(#clip8_9193_1485)">
<path d="M623.179 173.912C622.903 173.78 622.623 173.653 622.339 173.531C621.845 164.429 616.872 159.218 608.521 159.165C608.483 159.164 608.445 159.164 608.407 159.164C603.412 159.164 599.258 161.296 596.701 165.176L601.294 168.327C603.204 165.429 606.202 164.811 608.41 164.811C608.435 164.811 608.461 164.811 608.486 164.811C611.236 164.829 613.311 165.628 614.653 167.187C615.631 168.322 616.284 169.891 616.608 171.871C614.17 171.456 611.534 171.329 608.715 171.49C600.775 171.948 595.671 176.578 596.014 183.013C596.188 186.277 597.814 189.085 600.592 190.919C602.941 192.47 605.966 193.228 609.111 193.056C613.263 192.829 616.521 191.244 618.793 188.347C620.519 186.148 621.611 183.297 622.093 179.704C624.072 180.899 625.539 182.47 626.349 184.36C627.726 187.571 627.806 192.849 623.5 197.151C619.727 200.92 615.192 202.551 608.338 202.601C600.735 202.545 594.985 200.107 591.247 195.354C587.746 190.904 585.937 184.476 585.869 176.249C585.937 168.022 587.746 161.594 591.247 157.144C594.985 152.391 600.735 149.953 608.338 149.897C615.996 149.954 621.846 152.404 625.728 157.179C627.631 159.521 629.066 162.466 630.012 165.9L635.394 164.464C634.247 160.237 632.443 156.595 629.988 153.574C625.012 147.452 617.734 144.315 608.357 144.25H608.319C598.961 144.315 591.764 147.464 586.93 153.61C582.628 159.078 580.409 166.688 580.334 176.227L580.334 176.249L580.334 176.272C580.409 185.81 582.628 193.42 586.93 198.889C591.764 205.034 598.961 208.184 608.319 208.248H608.357C616.676 208.191 622.541 206.012 627.372 201.185C633.693 194.871 633.503 186.955 631.419 182.096C629.925 178.611 627.075 175.781 623.179 173.912ZM608.813 187.418C605.334 187.614 601.718 186.052 601.54 182.706C601.408 180.226 603.305 177.458 609.027 177.128C609.682 177.09 610.325 177.072 610.957 177.072C613.035 177.072 614.979 177.274 616.747 177.66C616.088 185.894 612.221 187.231 608.813 187.418Z" fill="black"/>
</g>
<path d="M752 207.248C769.121 207.248 782.999 193.37 782.999 176.249C782.999 159.129 769.121 145.25 752 145.25C734.88 145.25 721.001 159.129 721.001 176.249C721.001 193.37 734.88 207.248 752 207.248Z" fill="#EA4C89"/>
<path fill-rule="evenodd" clip-rule="evenodd" d="M752 144.25C734.335 144.25 720.001 158.584 720.001 176.249C720.001 193.915 734.335 208.248 752 208.248C769.631 208.248 783.999 193.915 783.999 176.249C783.999 158.584 769.631 144.25 752 144.25ZM773.136 159C776.954 163.651 779.245 169.586 779.314 176.006C778.412 175.833 769.388 173.993 760.295 175.139C760.087 174.687 759.913 174.201 759.705 173.716C759.15 172.397 758.525 171.043 757.9 169.759C767.965 165.664 772.546 159.764 773.136 159ZM752 148.97C758.941 148.97 765.293 151.573 770.117 155.842C769.631 156.536 765.501 162.054 755.783 165.698C751.306 157.473 746.343 150.74 745.58 149.699C747.627 149.213 749.779 148.97 752 148.97ZM740.374 151.538C741.103 152.51 745.961 159.278 750.508 167.33C737.736 170.731 726.456 170.661 725.242 170.661C727.012 162.193 732.738 155.148 740.374 151.538ZM724.652 176.284C724.652 176.006 724.652 175.729 724.652 175.451C725.832 175.486 739.09 175.659 752.729 171.564C753.527 173.091 754.256 174.653 754.95 176.214C754.603 176.319 754.221 176.423 753.874 176.527C739.784 181.073 732.287 193.498 731.662 194.539C727.324 189.715 724.652 183.295 724.652 176.284ZM752 203.598C745.684 203.598 739.853 201.446 735.237 197.836C735.723 196.83 741.276 186.14 756.685 180.761C756.755 180.726 756.79 180.726 756.859 180.692C760.711 190.652 762.273 199.016 762.69 201.411C759.393 202.834 755.783 203.598 752 203.598ZM767.236 198.912C766.959 197.246 765.501 189.264 761.926 179.442C770.499 178.088 777.995 180.31 778.932 180.622C777.752 188.223 773.379 194.782 767.236 198.912Z" fill="#C32361"/>
<path d="M909.805 167.352C913.92 170.305 918.962 172.042 924.407 172.042V161.526C923.377 161.526 922.349 161.418 921.34 161.204V169.481C915.896 169.481 910.855 167.744 906.738 164.792V186.251C906.738 196.986 898.067 205.688 887.37 205.688C883.379 205.688 879.67 204.477 876.588 202.401C880.105 206.01 885.01 208.248 890.436 208.248C901.133 208.248 909.805 199.547 909.805 188.811V167.352H909.805ZM913.588 156.743C911.484 154.437 910.103 151.457 909.805 148.163V146.81H906.899C907.63 150.997 910.125 154.575 913.588 156.743ZM883.354 194.163C882.179 192.617 881.544 190.725 881.546 188.78C881.546 183.871 885.513 179.89 890.406 179.89C891.318 179.889 892.224 180.029 893.094 180.306V169.556C892.078 169.416 891.053 169.357 890.028 169.378V177.746C889.159 177.469 888.252 177.329 887.339 177.33C882.446 177.33 878.48 181.31 878.48 186.221C878.48 189.693 880.462 192.699 883.354 194.163Z" fill="#FF004F"/>
<path d="M906.737 164.792C910.854 167.744 915.895 169.481 921.34 169.481V161.204C918.3 160.554 915.61 158.96 913.587 156.743C910.124 154.575 907.629 150.997 906.898 146.81H899.265V188.811C899.247 193.707 895.288 197.672 890.405 197.672C887.528 197.672 884.971 196.295 883.352 194.163C880.461 192.699 878.479 189.692 878.479 186.221C878.479 181.311 882.445 177.33 887.338 177.33C888.276 177.33 889.179 177.476 890.027 177.746V169.379C879.519 169.596 871.068 178.213 871.068 188.811C871.068 194.101 873.172 198.897 876.588 202.401C879.669 204.477 883.379 205.689 887.37 205.689C898.066 205.689 906.738 196.986 906.738 186.251V164.792H906.737Z" fill="black"/>
<path d="M921.34 161.204V158.966C918.599 158.97 915.912 158.199 913.587 156.743C915.645 159.004 918.356 160.564 921.34 161.204ZM906.898 146.81C906.828 146.41 906.775 146.007 906.737 145.603V144.25H896.198V186.251C896.181 191.147 892.222 195.111 887.338 195.111C885.905 195.111 884.551 194.77 883.352 194.163C884.971 196.295 887.528 197.671 890.405 197.671C895.287 197.671 899.248 193.707 899.265 188.811V146.81H906.898ZM890.028 169.378V166.996C889.147 166.875 888.259 166.814 887.37 166.815C876.673 166.815 868.001 175.517 868.001 186.251C868.001 192.981 871.409 198.912 876.588 202.4C873.172 198.896 871.068 194.1 871.068 188.81C871.068 178.213 879.519 169.596 890.028 169.378Z" fill="#00F2EA"/>
<g clip-path="url(#clip9_9193_1485)">
<path d="M1062.86 173.963L1053.72 183.106H1044.57L1036.57 191.106V183.106H1026.29V148.821H1062.86V173.963Z" fill="white"/>
<path d="M1024 144.25L1012.57 155.678V196.82H1026.29V208.248L1037.72 196.82H1046.86L1067.43 176.249V144.25H1024ZM1062.86 173.963L1053.72 183.106H1044.57L1036.57 191.106V183.106H1026.29V148.821H1062.86V173.963Z" fill="#4F46E5"/>
<path d="M1056 156.821H1051.43V170.535H1056V156.821Z" fill="#4F46E5"/>
<path d="M1043.43 156.821H1038.86V170.535H1043.43V156.821Z" fill="#4F46E5"/>
</g>
<g clip-path="url(#clip10_9193_1485)">
<path d="M1211.28 144.25H1156.73C1155.47 144.25 1154.27 144.748 1153.39 145.634C1152.5 146.52 1152 147.721 1152 148.974V203.524C1152 204.777 1152.5 205.979 1153.39 206.865C1154.27 207.751 1155.47 208.248 1156.73 208.248H1211.28C1212.53 208.248 1213.73 207.751 1214.62 206.865C1215.5 205.979 1216 204.777 1216 203.524V148.974C1216 147.721 1215.5 146.52 1214.62 145.634C1213.73 144.748 1212.53 144.25 1211.28 144.25ZM1171.08 198.769H1161.45V168.205H1171.08V198.769ZM1166.26 163.969C1165.17 163.963 1164.1 163.634 1163.2 163.023C1162.29 162.412 1161.59 161.547 1161.18 160.537C1160.76 159.527 1160.66 158.417 1160.88 157.347C1161.09 156.277 1161.62 155.296 1162.4 154.526C1163.17 153.757 1164.16 153.234 1165.23 153.024C1166.3 152.814 1167.41 152.926 1168.41 153.346C1169.42 153.765 1170.28 154.474 1170.89 155.383C1171.49 156.291 1171.82 157.358 1171.81 158.45C1171.82 159.18 1171.69 159.906 1171.41 160.582C1171.14 161.259 1170.73 161.873 1170.21 162.388C1169.69 162.903 1169.07 163.309 1168.39 163.581C1167.72 163.852 1166.99 163.984 1166.26 163.969ZM1206.54 198.795H1196.92V182.098C1196.92 177.174 1194.83 175.654 1192.13 175.654C1189.28 175.654 1186.48 177.805 1186.48 182.222V198.795H1176.85V168.227H1186.11V172.463H1186.23C1187.16 170.583 1190.41 167.369 1195.38 167.369C1200.75 167.369 1206.55 170.556 1206.55 179.889L1206.54 198.795Z" fill="#0A66C2"/>
</g>
<defs>
<radialGradient id="paint0_radial_9193_1485" cx="0" cy="0" r="1" gradientUnits="userSpaceOnUse" gradientTransform="translate(10.7197 208.248) scale(70.3981 70.3981)">
<stop stop-color="#0099FF"/>
<stop offset="0.6" stop-color="#A033FF"/>
<stop offset="0.9" stop-color="#FF5280"/>
<stop offset="1" stop-color="#FF7061"/>
</radialGradient>
<clipPath id="clip0_9193_1485">
<rect width="64" height="64" fill="white" transform="translate(144 0.25)"/>
</clipPath>
<clipPath id="clip1_9193_1485">
<rect width="64" height="64" fill="white" transform="translate(288 0.25)"/>
</clipPath>
<clipPath id="clip2_9193_1485">
<rect width="64" height="64" fill="white" transform="translate(432 0.25)"/>
</clipPath>
<clipPath id="clip3_9193_1485">
<rect width="64" height="64" fill="white" transform="translate(576 0.25)"/>
</clipPath>
<clipPath id="clip4_9193_1485">
<rect width="64" height="64" fill="white" transform="translate(720 0.25)"/>
</clipPath>
<clipPath id="clip5_9193_1485">
<rect width="64" height="64" fill="white" transform="translate(864 0.25)"/>
</clipPath>
<clipPath id="clip6_9193_1485">
<rect width="63.9982" height="63.9982" fill="white" transform="translate(288 144.25)"/>
</clipPath>
<clipPath id="clip7_9193_1485">
<rect width="63.9982" height="63.9982" fill="white" transform="translate(432.001 144.25)"/>
</clipPath>
<clipPath id="clip8_9193_1485">
<rect width="63.9982" height="63.9982" fill="white" transform="translate(576.001 144.25)"/>
</clipPath>
<clipPath id="clip9_9193_1485">
<rect width="63.9982" height="63.9982" fill="white" transform="translate(1008 144.25)"/>
</clipPath>
<clipPath id="clip10_9193_1485">
<rect width="63.9982" height="63.9982" fill="white" transform="translate(1152 144.25)"/>
</clipPath>
</defs>
</svg>
