<svg width="24" height="24" viewBox="0 0 24 24" fill="none" xmlns="http://www.w3.org/2000/svg">
<path d="M19.5001 4.5001V19.5001C19.5002 19.6485 19.4563 19.7936 19.3739 19.9171C19.2915 20.0405 19.1743 20.1368 19.0372 20.1936C18.9001 20.2504 18.7492 20.2652 18.6036 20.2362C18.4581 20.2073 18.3244 20.1357 18.2195 20.0307L12.0001 13.8104V19.5001C12.0002 19.6485 11.9563 19.7936 11.8739 19.9171C11.7915 20.0405 11.6743 20.1368 11.5372 20.1936C11.4001 20.2504 11.2492 20.2652 11.1036 20.2362C10.9581 20.2073 10.8244 20.1357 10.7195 20.0307L3.21948 12.5307C3.14974 12.4611 3.09443 12.3784 3.05668 12.2873C3.01894 12.1963 2.99951 12.0987 2.99951 12.0001C2.99951 11.9015 3.01894 11.8039 3.05668 11.7129C3.09443 11.6218 3.14974 11.5391 3.21948 11.4695L10.7195 3.96948C10.8244 3.86447 10.9581 3.79294 11.1036 3.76396C11.2492 3.73497 11.4001 3.74982 11.5372 3.80664C11.6743 3.86345 11.7915 3.95967 11.8739 4.08312C11.9563 4.20656 12.0002 4.35168 12.0001 4.5001V10.1898L18.2195 3.96948C18.3244 3.86447 18.4581 3.79294 18.6036 3.76396C18.7492 3.73497 18.9001 3.74982 19.0372 3.80664C19.1743 3.86345 19.2915 3.95967 19.3739 4.08312C19.4563 4.20656 19.5002 4.35168 19.5001 4.5001Z" fill="#ffffdd"/>
</svg>
